<?xml version="1.0" encoding="UTF-8" standalone="no"?>
<svg
   xmlns:dc="http://purl.org/dc/elements/1.1/"
   xmlns:cc="http://creativecommons.org/ns#"
   xmlns:rdf="http://www.w3.org/1999/02/22-rdf-syntax-ns#"
   xmlns:svg="http://www.w3.org/2000/svg"
   xmlns="http://www.w3.org/2000/svg"
   xmlns:sodipodi="http://sodipodi.sourceforge.net/DTD/sodipodi-0.dtd"
   xmlns:inkscape="http://www.inkscape.org/namespaces/inkscape"
   version="1.1"
   id="Layer_1"
   x="0px"
   y="0px"
   viewBox="0 0 183.10001 153.77"
   xml:space="preserve"
   sodipodi:docname="Inu_Logo_Simple.svg"
   width="183.10001"
   height="153.77"
   inkscape:version="1.0.1 (3bc2e813f5, 2020-09-07)"
   inkscape:export-filename="/home/alvaro/Desktop/AcheronProject/Cheshire/graphics/Inu_Logo_Simple.png"
   inkscape:export-xdpi="2000"
   inkscape:export-ydpi="2000"><metadata
   id="metadata931"><rdf:RDF><cc:Work
       rdf:about=""><dc:format>image/svg+xml</dc:format><dc:type
         rdf:resource="http://purl.org/dc/dcmitype/StillImage" /><dc:title></dc:title></cc:Work></rdf:RDF></metadata><defs
   id="defs929" /><sodipodi:namedview
   pagecolor="#ffffff"
   bordercolor="#666666"
   borderopacity="1"
   objecttolerance="10"
   gridtolerance="10"
   guidetolerance="10"
   inkscape:pageopacity="0"
   inkscape:pageshadow="2"
   inkscape:window-width="1920"
   inkscape:window-height="1043"
   id="namedview927"
   showgrid="false"
   inkscape:zoom="1.5079052"
   inkscape:cx="88.398009"
   inkscape:cy="63.014892"
   inkscape:window-x="1920"
   inkscape:window-y="310"
   inkscape:window-maximized="1"
   inkscape:current-layer="g924" />
<g
   id="g924"
   transform="translate(-8.17,-22.87)">
	<path
   d="m 144.91,46.4 c -4.12,-7.64 -9.84,-13.45 -17.14,-17.44 -7.31,-3.99 -15.55,-5.98 -24.71,-5.98 h -4.83 c -9.17,0 -17.41,1.99 -24.71,5.98 C 66.21,32.95 60.5,38.76 56.38,46.4 52.26,54.04 50.2,63.24 50.2,74 v 92.47 c 0,2.92 0.97,5.35 2.89,7.27 1.93,1.93 4.35,2.89 7.27,2.89 2.92,0 5.35,-0.96 7.27,-2.89 1.93,-1.92 2.89,-4.35 2.89,-7.27 V 74 c 0,-10.76 2.89,-18.9 8.67,-24.42 5.46,-5.21 12.61,-7.95 21.45,-8.24 8.84,0.29 15.99,3.04 21.45,8.24 5.78,5.52 8.67,13.65 8.67,24.42 v 49.03 c 0,2.92 0.96,5.35 2.89,7.27 1.93,1.93 4.35,2.89 7.27,2.89 2.92,0 5.35,-0.96 7.27,-2.89 1.93,-1.92 2.89,-4.35 2.89,-7.27 V 74 c 0.01,-10.76 -2.05,-19.96 -6.17,-27.6 z"
   id="path918" />
	<path
   d="m 96.56,153.22 c 4.12,7.64 9.84,13.45 17.14,17.44 7.31,3.99 15.55,5.98 24.71,5.98 h 4.83 c 9.17,0 17.41,-1.99 24.71,-5.98 7.31,-3.99 13.02,-9.8 17.14,-17.44 4.12,-7.64 6.18,-16.84 6.18,-27.6 V 33.03 c 0,-2.92 -0.97,-5.35 -2.89,-7.27 -1.93,-1.93 -4.35,-2.89 -7.27,-2.89 -2.92,0 -5.35,0.96 -7.27,2.89 -1.93,1.92 -2.89,4.35 -2.89,7.27 v 92.58 c 0,10.76 -2.89,18.9 -8.67,24.42 -5.46,5.21 -12.61,7.95 -21.45,8.24 -8.84,-0.29 -15.99,-3.04 -21.45,-8.24 -5.78,-5.52 -8.67,-13.65 -8.67,-24.42 V 76.59 c 0,-2.92 -0.96,-5.35 -2.89,-7.27 -1.93,-1.93 -4.35,-2.89 -7.27,-2.89 -2.92,0 -5.35,0.96 -7.27,2.89 -1.93,1.92 -2.89,4.35 -2.89,7.27 v 49.03 c -0.01,10.76 2.05,19.96 6.17,27.6 z"
   id="path920" />
	<path
   d="m 25.61,25.76 c -1.93,-1.93 -4.35,-2.89 -7.28,-2.89 -2.92,0 -5.35,0.96 -7.27,2.89 -1.93,1.92 -2.89,4.35 -2.89,7.27 v 84.41 8.17 40.86 c 0,2.92 0.97,5.35 2.89,7.27 1.93,1.93 4.35,2.89 7.27,2.89 2.92,0 5.35,-0.96 7.27,-2.89 1.93,-1.92 2.89,-4.35 2.89,-7.27 v -40.86 -8.17 -84.41 c 0.01,-2.92 -0.96,-5.35 -2.88,-7.27 z"
   id="path922" />
</g>
</svg>
